version 1
nodes
0 "Bip01" -1
1 "Bip01 Footsteps" 0
2 "Bip01 Pelvis" 0
3 "Bip01 L Thigh" 2
4 "Bip01 L Calf" 3
5 "Bip01 L Foot" 4
6 "Bip01 L Toe0" 5
7 "Bip01 L Toe01" 6
8 "Bip01 L Toe02" 7
9 "Null 9" -1
10 "Bip01 R Thigh" 2
11 "Bip01 R Calf" 10
12 "Bip01 R Foot" 11
13 "Bip01 R Toe0" 12
14 "Bip01 R Toe01" 13
15 "Bip01 R Toe02" 14
16 "Null 16" -1
17 "Bip01 Spine" 2
18 "Bip01 Spine1" 17
19 "Bip01 Neck" 18
20 "Bip01 Head" 19
21 "Null 21" -1
22 "Bip01 R Clavicle" 19
23 "Bip01 R UpperArm" 22
24 "Bip01 R Forearm" 23
25 "Bip01 R Hand" 24
26 "Bip01 R Finger0" 25
27 "Bip01 R Finger01" 26
28 "Bip01 R Finger02" 27
29 "Null 29" -1
30 "Bip01 L Clavicle" 19
31 "Bip01 L UpperArm" 30
32 "Bip01 L Forearm" 31
33 "Bip01 L Hand" 32
34 "Bip01 L Finger0" 33
35 "Bip01 L Finger01" 34
36 "Bip01 L Finger02" 35
37 "Null 37" -1
end
skeleton
time 0
0 -1.263770 -0.059476 121.408974 0.000000 0.000000 -1.832594
1 -0.000000 0.000000 -120.891861 0.000000 0.000000 1.832594
2 -1.795994 -0.190736 0.000000 -1.570795 -1.570796 0.000000
3 -0.000014 0.000021 11.412507 -0.394853 -3.049990 -0.094553
4 68.036102 -0.000000 -0.000000 -0.000000 -0.000000 -0.252838
5 40.970581 -0.000001 0.000000 -0.034031 -0.047808 0.132180
6 12.866230 16.548136 0.000001 -0.000000 0.000000 1.570796
7 4.619220 -0.000000 -0.000000 0.000000 0.000000 0.000000
8 4.619223 0.000000 -0.000000 0.000000 0.000000 0.000000
9 0.0 0.0 0.0 0.0 0.0 0.0
10 0.000018 -0.000011 -11.412504 0.077953 3.094718 -0.117284
11 68.036110 -0.000001 -0.000000 -0.000000 -0.000000 -0.351829
12 40.970589 -0.000000 0.000001 0.003990 0.036573 0.241110
13 12.866229 16.548136 0.000000 0.000000 0.000000 1.570796
14 4.619220 -0.000000 0.000000 -0.000000 -0.000000 0.523599
15 4.619221 0.000000 -0.000001 0.000000 0.000000 0.000000
16 0.0 0.0 0.0 0.0 0.0 0.0
17 3.995897 -0.017430 0.000013 -0.000341 -0.007597 0.087732
18 21.978714 -0.022621 -0.003992 0.174521 0.000155 -0.041393
19 28.870605 -0.001795 -0.000000 0.000000 -0.000000 0.030000
20 2.255432 -0.000000 0.000000 0.087144 -0.000715 -0.076929
21 0.0 0.0 0.0 0.0 0.0 0.0
22 -0.000004 0.001814 -7.189880 -1.071157 1.170538 2.075020
23 19.633924 0.000001 0.000002 -0.231970 -1.239854 0.437886
24 45.111355 0.000001 0.000003 0.000000 -0.000000 -2.182212
25 30.495703 -0.000006 -0.000005 1.676433 -0.088982 0.397780
26 11.570523 -2.008645 -0.034509 0.000619 -0.000619 0.785398
27 4.022908 0.000001 0.000007 -0.000000 0.000000 0.785398
28 4.022907 -0.000000 0.000005 0.000000 0.000000 0.785398
29 0.0 0.0 0.0 0.0 0.0 0.0
30 -0.000001 0.001777 7.189880 -0.414832 -1.352819 -2.766319
31 19.633926 -0.000000 -0.000008 -0.596850 1.024138 -1.325676
32 45.111370 -0.000001 -0.000004 0.000000 0.000000 -1.554247
33 30.495707 -0.000002 0.000004 -1.577789 0.547826 -0.021840
34 11.570524 -2.008647 0.034516 -0.000619 0.000619 0.785398
35 4.022909 -0.000005 0.000005 0.000000 -0.000000 0.785398
36 4.022913 0.000002 0.000001 0.000000 0.000000 0.785398
37 0.0 0.0 0.0 0.0 0.0 0.0
time 1
0 -1.302603 -0.048937 121.408974 0.000000 0.000000 -1.832594
1 -0.000000 -0.000000 -120.891861 0.000000 0.000000 1.832594
2 -0.711087 0.000692 0.000000 -1.570795 -1.570796 0.000000
3 -0.000014 0.000021 11.412508 -0.395698 -3.051601 -0.081318
4 68.036102 -0.000000 0.000000 0.000000 -0.000000 -0.254574
5 40.970589 -0.000000 0.000001 -0.033974 -0.051414 0.146697
6 12.866230 16.548136 0.000000 -0.000000 0.000000 1.570796
7 4.619219 -0.000000 0.000000 0.000000 0.000000 0.000000
8 4.619223 0.000000 0.000000 0.000000 0.000000 0.000000
9 0.0 0.0 0.0 0.0 0.0 0.0
10 0.000018 -0.000011 -11.412505 0.078281 3.092862 -0.101774
11 68.036102 0.000000 0.000001 -0.000000 -0.000000 -0.347410
12 40.970592 -0.000001 -0.000001 0.004087 0.039659 0.251995
13 12.866229 16.548136 0.000002 0.000000 0.000000 1.570796
14 4.619221 0.000000 -0.000000 -0.000000 -0.000000 0.523599
15 4.619221 0.000000 -0.000002 0.000000 0.000000 0.000000
16 0.0 0.0 0.0 0.0 0.0 0.0
17 3.995897 -0.017430 0.000013 -0.000341 -0.007597 0.087732
18 21.976202 -0.022381 -0.003968 0.173488 0.019059 -0.148832
19 28.870613 -0.001795 0.000000 0.000000 -0.000000 0.030000
20 2.255434 0.000000 -0.000000 0.087075 0.003557 -0.016747
21 0.0 0.0 0.0 0.0 0.0 0.0
22 -0.000003 0.001815 -7.189879 -1.071156 1.170538 2.075020
23 19.633924 0.000000 -0.000011 0.591970 -1.134561 -0.407513
24 45.111362 -0.000001 0.000005 0.000000 0.000000 -2.294423
25 30.495697 0.000002 -0.000003 1.704618 -0.059068 0.953041
26 11.570525 -2.008646 -0.034507 0.000619 -0.000619 0.785398
27 4.022907 -0.000001 0.000005 0.000000 -0.000000 0.785398
28 4.022911 -0.000001 -0.000001 -0.000000 0.000000 0.785398
29 0.0 0.0 0.0 0.0 0.0 0.0
30 -0.000000 0.001777 7.189879 -0.414831 -1.352819 -2.766319
31 19.633923 -0.000000 0.000014 -0.603959 1.038161 -1.277420
32 45.111351 0.000002 0.000004 -0.000000 -0.000000 -1.609287
33 30.495699 -0.000008 0.000004 -1.577789 0.547826 -0.021840
34 11.570524 -2.008646 0.034522 -0.000619 0.000619 0.785398
35 4.022910 0.000001 0.000005 0.000000 0.000000 0.785398
36 4.022910 -0.000001 -0.000005 -0.000000 0.000000 0.785398
37 0.0 0.0 0.0 0.0 0.0 0.0
time 2
0 -1.341437 -0.038399 121.408974 0.000000 0.000000 -1.832594
1 0.000000 0.000000 -120.891861 0.000000 0.000000 1.832594
2 -0.062885 0.115024 0.000000 -1.570795 -1.570796 0.000000
3 -0.000014 0.000021 11.412508 -0.395834 -3.051763 -0.079006
4 68.036110 0.000000 -0.000000 -0.000000 0.000000 -0.254403
5 40.970589 0.000001 -0.000001 -0.033966 -0.052155 0.148712
6 12.866230 16.548136 0.000002 -0.000000 0.000000 1.570796
7 4.619220 -0.000000 -0.000000 0.000000 0.000000 0.000000
8 4.619221 0.000000 -0.000000 0.000000 0.000000 0.000000
9 0.0 0.0 0.0 0.0 0.0 0.0
10 0.000017 -0.000011 -11.412505 0.078363 3.092731 -0.099190
11 68.036118 -0.000000 -0.000000 -0.000000 0.000000 -0.346537
12 40.970585 -0.000002 -0.000000 0.004100 0.039994 0.253684
13 12.866229 16.548136 0.000000 0.000000 0.000000 1.570796
14 4.619220 0.000000 0.000000 -0.000000 -0.000000 0.523599
15 4.619220 0.000000 -0.000001 0.000000 0.000000 0.000000
16 0.0 0.0 0.0 0.0 0.0 0.0
17 3.995897 -0.017430 0.000013 -0.000341 -0.007597 0.087732
18 21.974730 -0.022109 -0.003930 0.171896 0.030310 -0.213327
19 28.870607 -0.001795 -0.000000 0.000000 -0.000000 0.030000
20 2.255435 0.000001 0.000000 0.086933 0.006116 0.019362
21 0.0 0.0 0.0 0.0 0.0 0.0
22 0.000001 0.001816 -7.189880 -1.071157 1.170538 2.075020
23 19.633924 0.000002 -0.000005 0.845459 -0.989193 -0.673678
24 45.111359 0.000003 0.000002 -0.000000 -0.000000 -2.361750
25 30.495687 0.000002 -0.000001 1.727786 -0.050035 1.286156
26 11.570524 -2.008644 -0.034509 0.000619 -0.000619 0.785398
27 4.022910 -0.000001 0.000012 -0.000000 -0.000000 0.785398
28 4.022907 -0.000000 -0.000016 0.000000 -0.000000 0.785398
29 0.0 0.0 0.0 0.0 0.0 0.0
30 0.000003 0.001779 7.189879 -0.414832 -1.352819 -2.766319
31 19.633926 0.000001 -0.000000 -0.602760 1.045564 -1.243451
32 45.111355 -0.000001 0.000001 -0.000000 -0.000000 -1.642311
33 30.495693 0.000007 0.000001 -1.577789 0.547826 -0.021840
34 11.570525 -2.008648 0.034516 -0.000619 0.000619 0.785398
35 4.022907 0.000006 -0.000001 0.000000 -0.000000 0.785398
36 4.022902 0.000002 -0.000005 0.000000 0.000000 0.785398
37 0.0 0.0 0.0 0.0 0.0 0.0
time 3
0 -1.341437 -0.038399 121.408974 0.000000 0.000000 -1.832594
1 0.000000 0.000000 -120.891876 0.000000 0.000000 1.832594
2 -1.795994 -0.190736 0.000000 -1.570795 -1.570796 0.000000
3 -0.000014 0.000021 11.412508 -0.394749 -3.049355 -0.094324
4 68.036110 -0.000000 0.000000 -0.000000 0.000000 -0.252148
5 40.970589 -0.000000 0.000001 -0.034073 -0.048492 0.131458
6 12.866230 16.548138 0.000002 -0.000000 0.000000 1.570796
7 4.619219 0.000000 -0.000000 0.000000 0.000000 0.000000
8 4.619223 0.000000 0.000000 0.000000 0.000000 0.000000
9 0.0 0.0 0.0 0.0 0.0 0.0
10 0.000018 -0.000011 -11.412505 0.077997 3.095458 -0.117402
11 68.036102 -0.000000 0.000000 0.000000 0.000000 -0.352152
12 40.970585 -0.000001 0.000000 0.004024 0.035826 0.241374
13 12.866229 16.548136 -0.000000 0.000000 0.000000 1.570796
14 4.619221 0.000000 -0.000001 -0.000000 -0.000000 0.523599
15 4.619221 0.000001 -0.000002 0.000000 0.000000 0.000000
16 0.0 0.0 0.0 0.0 0.0 0.0
17 3.995898 -0.017430 0.000013 -0.000341 -0.007597 0.087732
18 21.978714 -0.022621 -0.003992 0.174521 0.000155 -0.041393
19 28.870605 -0.001795 0.000000 0.000000 -0.000000 0.030000
20 2.255432 0.000000 0.000000 0.087144 -0.000715 -0.076929
21 0.0 0.0 0.0 0.0 0.0 0.0
22 -0.000004 0.001815 -7.189879 -1.071157 1.170538 2.075020
23 19.633926 0.000001 -0.000001 -0.231970 -1.239854 0.437886
24 45.111359 0.000001 0.000002 0.000000 -0.000000 -2.182212
25 30.495701 -0.000004 -0.000002 1.676433 -0.088982 0.397780
26 11.570525 -2.008645 -0.034515 0.000619 -0.000619 0.785398
27 4.022908 0.000001 -0.000001 -0.000000 0.000000 0.785398
28 4.022907 0.000002 -0.000003 0.000000 0.000000 0.785398
29 0.0 0.0 0.0 0.0 0.0 0.0
30 -0.000001 0.001777 7.189879 -0.414832 -1.352819 -2.766319
31 19.633926 -0.000000 -0.000003 -0.596850 1.024138 -1.325676
32 45.111370 0.000000 -0.000000 0.000000 0.000000 -1.554247
33 30.495707 -0.000005 0.000008 -1.577789 0.547826 -0.021840
34 11.570525 -2.008645 0.034517 -0.000619 0.000619 0.785398
35 4.022909 -0.000005 0.000000 -0.000000 -0.000000 0.785398
36 4.022910 0.000002 0.000004 0.000000 0.000000 0.785398
37 0.0 0.0 0.0 0.0 0.0 0.0
end
